<?xml version="1.0" encoding="utf-8"?>
<!-- Generator: Adobe Illustrator 24.0.2, SVG Export Plug-In . SVG Version: 6.00 Build 0)  -->
<svg version="1.1" id="Capa_1" xmlns="http://www.w3.org/2000/svg" xmlns:xlink="http://www.w3.org/1999/xlink" x="0px" y="0px"
	 viewBox="0 0 150 150" style="enable-background:new 0 0 150 150;" xml:space="preserve">
<style type="text/css">
	.st0{fill:#62DAF3;}
	.st1{fill:#061F3E;}
</style>
<g id="horizontal">
	<g>
		<g>
			<path class="st0" d="M136.5,104.9c-1-1.6-2.8-2.5-4.7-2.5H93.5h-9H69.2h-6.8H21.8c-1.9,0-3.6,0.9-4.7,2.5c-1,1.6-1.2,3.5-0.5,5.3
				l7.7,17.9c0.9,2,2.9,3.4,5.1,3.4h33.7c2.2,0,4.2-1.3,5.1-3.3l6.9-15h3.3l6.9,15c0.9,2,2.9,3.3,5.1,3.3h33.7
				c2.2,0,4.2-1.3,5.1-3.4l7.7-17.9C137.7,108.5,137.6,106.5,136.5,104.9z M71,110.3l-7.3,15.9c-0.1,0.2-0.3,0.3-0.5,0.3H29.5
				c-0.2,0-0.4-0.1-0.5-0.3l-7.7-17.9c-0.1-0.2,0-0.4,0-0.5c0.1-0.1,0.2-0.2,0.5-0.2h40.6h6.8c1,0,1.5,0.6,1.7,0.9
				C71,108.6,71.4,109.4,71,110.3z M132.4,108.2l-7.7,17.9c-0.1,0.2-0.3,0.3-0.5,0.3H90.4c-0.2,0-0.4-0.1-0.5-0.3l-7.3-15.9
				c-0.4-0.9,0-1.6,0.1-1.9c0.2-0.3,0.7-0.9,1.7-0.9h9h38.4c0.2,0,0.4,0.1,0.5,0.2C132.4,107.8,132.5,108,132.4,108.2z"/>
			<g>
				<path class="st1" d="M43.7,95.7c0.4,0,0.9,0,1.3-0.1c0.4-0.1,0.9,0,1.3,0c0.9-0.1,1.6,0,2.2,0c0.6,0,0.9-0.1,0.9-0.1
					s-0.1-0.3-0.5-0.8c-0.3-0.5-0.8-1.2-1.6-1.8C47,92.6,46.5,92.2,46,92c-0.5-0.2-1.1-0.5-1.8-0.7c-0.7-0.1-1.3-0.3-2.1-0.3
					c-0.7,0-1.5,0.1-2.2,0.3c-0.7,0.2-1.4,0.4-2,0.8c-0.6,0.3-1.2,0.7-1.7,1.2c-1,0.9-1.7,1.8-2.1,2.8c-0.4,0.9-0.6,1.7-0.7,2.3
					c-0.1,0.6,0,1,0,1s1.1-0.5,2.8-1.3c0.8-0.4,1.6-0.7,2.4-1c0.4-0.1,0.8-0.3,1.3-0.4c0.4-0.1,0.8-0.3,1.2-0.3
					c0.4-0.2,0.8-0.2,1.2-0.3C42.9,95.8,43.3,95.8,43.7,95.7z"/>
				<path class="st1" d="M46.2,112.3c-1.1,0-2.1,0.4-2.9,1.1l2.9,3.6l-4.6-0.6c0,0.2-0.1,0.4-0.1,0.6c0,2.6,2.1,4.6,4.6,4.6
					c2.6,0,4.6-2.1,4.6-4.6C50.8,114.4,48.8,112.3,46.2,112.3z"/>
				<path class="st1" d="M119.4,96c-0.4-0.9-1.1-1.9-2.1-2.8c-0.5-0.4-1.1-0.8-1.7-1.2c-0.6-0.3-1.3-0.6-2-0.8
					c-0.7-0.2-1.4-0.2-2.2-0.3c-0.7,0-1.4,0.1-2.1,0.3c-0.6,0.2-1.2,0.4-1.8,0.7c-0.5,0.2-1,0.6-1.4,0.9c-0.8,0.6-1.3,1.3-1.6,1.8
					c-0.3,0.5-0.5,0.8-0.5,0.8s0.4,0.1,0.9,0.1c0.6,0,1.3,0,2.2,0c0.4,0,0.8,0,1.3,0c0.4,0.1,0.9,0.1,1.3,0.1
					c0.4,0.1,0.9,0.1,1.3,0.2c0.4,0.1,0.8,0.1,1.2,0.3c0.4,0.1,0.8,0.2,1.2,0.3c0.4,0.1,0.8,0.3,1.3,0.4c0.8,0.3,1.7,0.7,2.4,1
					c1.7,0.8,2.8,1.3,2.8,1.3s0.1-0.4,0-1C120.1,97.7,119.9,96.9,119.4,96z"/>
				<path class="st1" d="M107.4,112.3c-1.1,0-2.1,0.4-2.9,1.1l2.9,3.6l-4.6-0.6c0,0.2-0.1,0.4-0.1,0.6c0,2.6,2.1,4.6,4.6,4.6
					s4.6-2.1,4.6-4.6C112.1,114.4,110,112.3,107.4,112.3z"/>
			</g>
		</g>
	</g>
</g>
<path class="st1" d="M134.1,48.9c-5.5-4.9-7.6-13.5-13-17c-1.3-0.9-2.8-1.7-4.4-2.5c-5.2-1-11.4-2.1-16.7-2.8
	c-11.7-1.5-26,0.2-26,0.2s11.1-2.1,20.1-1.5c6.8,0.4,14.1,1.7,20.2,3c-10.6-4.7-25.2-7.8-38.6-9.1c-4.4,0.9-7.7,1.9-7.7,1.9
	s2.6-1.1,6.1-2.1c-2.6-0.2-5.1-0.4-7.5-0.5c-6.1,1.7-11.3,4.1-11.3,4.1s4.3-2.4,9.1-4.1c-1,0-1.9,0-2.9,0c-8.2,1.8-17,6.7-17,6.7
	s7.2-4.8,13.5-6.6c-4.9,0.2-9,0.8-12,1.8c-24,8.1-22.7,22.6-32.9,38.4c-3.1,4.8,5.4,40.5,5.4,40.5l0.7-1.7c1.4-3.1-1.2-22.3,4.8-26
	c5-3.1,2.5-8,6.3-10.6c8.7-6,24.5-7.4,46.9-7.4c20.6,0,34.5,0.5,42.8,7.4c3.2,2.6,1.5,8.7,5.3,10.6c3.8,1.9,5.4,19.8,6.9,24.3
	c0.8,2.4,2.5,3.4,2.5,3.4C133.7,71.5,141.7,55.6,134.1,48.9z"/>
</svg>
