<svg version="1.1" id="Capa_1" xmlns="http://www.w3.org/2000/svg" xmlns:xlink="http://www.w3.org/1999/xlink" x="0px" y="0px"
	 viewBox="0 0 1400 320" style="enable-background:new 0 0 1400 320;" xml:space="preserve">
<style type="text/css">
	.st0{fill:#62DAF3;}
	.st1{fill:#061F3E;}
	.st2{fill:#FFFFFF;}
</style>
<g id="horizontal">
	<g>
		<g>
			<path class="st0" d="M1341.39,232.96c-1.97-3-5.3-4.79-8.89-4.79h-73.3h-17.24h-29.09h-13.05h-77.49c-3.59,0-6.91,1.79-8.89,4.79
				c-1.97,3-2.3,6.76-0.88,10.06l14.76,34.19c1.68,3.9,5.52,6.42,9.77,6.42h64.39c4.15,0,7.94-2.44,9.67-6.21l13.09-28.6h6.35
				l13.09,28.6c1.73,3.77,5.52,6.21,9.67,6.21h64.39c4.25,0,8.08-2.52,9.77-6.42l14.76-34.19
				C1343.7,239.72,1343.37,235.96,1341.39,232.96z M1216.3,243.1l-13.88,30.31c-0.17,0.37-0.54,0.61-0.95,0.61h-64.39
				c-0.42,0-0.79-0.25-0.95-0.62l-14.75-34.19c-0.19-0.43-0.06-0.78,0.09-0.99s0.41-0.47,0.87-0.47h77.49h13.05
				c1.86,0,2.84,1.21,3.17,1.73C1216.38,240.01,1217.08,241.41,1216.3,243.1z M1333.46,239.22l-14.76,34.18
				c-0.17,0.38-0.54,0.63-0.96,0.63h-64.39c-0.41,0-0.78-0.23-0.94-0.6l-13.88-30.32c-0.77-1.69-0.08-3.09,0.26-3.61
				c0.33-0.52,1.31-1.73,3.17-1.73h17.24h73.3c0.46,0,0.73,0.25,0.87,0.47C1333.52,238.45,1333.65,238.79,1333.46,239.22z"/>
			<g>
				<path class="st2" d="M1164.31,215.39c0.83-0.07,1.67-0.07,2.51-0.17c0.84-0.11,1.66,0.01,2.46-0.05
					c1.64-0.16,3.06,0.01,4.16-0.07c1.09-0.03,1.8-0.13,1.8-0.13s-0.27-0.61-0.89-1.55c-0.64-0.91-1.55-2.32-3.11-3.45
					c-0.78-0.56-1.59-1.28-2.62-1.74c-1.03-0.45-2.14-0.98-3.37-1.29c-1.25-0.21-2.57-0.55-3.94-0.49c-1.37,0.04-2.79,0.1-4.13,0.5
					c-1.37,0.32-2.67,0.82-3.86,1.47c-1.23,0.58-2.25,1.42-3.23,2.2c-1.87,1.68-3.22,3.53-4.04,5.28c-0.82,1.75-1.21,3.32-1.33,4.46
					c-0.15,1.13-0.06,1.82-0.06,1.82s2.16-0.98,5.39-2.45c1.46-0.68,3.08-1.34,4.65-1.99c0.82-0.24,1.59-0.61,2.4-0.82
					c0.8-0.24,1.57-0.52,2.38-0.65c0.77-0.31,1.59-0.29,2.38-0.52C1162.66,215.57,1163.48,215.58,1164.31,215.39z"/>
				<path class="st2" d="M1168.97,247.04c-2.13,0-4.05,0.78-5.58,2.03l5.58,6.83l-8.74-1.15c-0.05,0.38-0.12,0.75-0.12,1.15
					c0,4.89,3.97,8.86,8.86,8.86s8.86-3.97,8.86-8.86S1173.87,247.04,1168.97,247.04z"/>
				<path class="st2" d="M1308.81,215.89c-0.82-1.75-2.17-3.6-4.04-5.28c-0.98-0.77-2.01-1.62-3.24-2.2
					c-1.2-0.65-2.49-1.15-3.86-1.47c-1.35-0.4-2.76-0.45-4.13-0.5c-1.37-0.06-2.69,0.28-3.94,0.49c-1.23,0.32-2.34,0.84-3.37,1.29
					c-1.03,0.46-1.85,1.18-2.62,1.74c-1.56,1.13-2.46,2.54-3.11,3.45c-0.63,0.94-0.89,1.55-0.89,1.55s0.71,0.1,1.8,0.13
					c1.1,0.08,2.52-0.08,4.16,0.07c0.8,0.06,1.62-0.06,2.46,0.05c0.84,0.1,1.68,0.1,2.51,0.17c0.82,0.18,1.65,0.18,2.45,0.34
					c0.79,0.23,1.61,0.21,2.38,0.52c0.81,0.13,1.58,0.41,2.38,0.65c0.81,0.21,1.58,0.58,2.4,0.82c1.58,0.65,3.2,1.31,4.65,1.99
					c3.23,1.47,5.39,2.45,5.39,2.45s0.1-0.69-0.06-1.82C1310.01,219.21,1309.63,217.64,1308.81,215.89z"/>
				<path class="st2" d="M1285.87,247.04c-2.13,0-4.05,0.78-5.58,2.03l5.58,6.83l-8.74-1.15c-0.05,0.38-0.12,0.75-0.12,1.15
					c0,4.89,3.97,8.86,8.86,8.86s8.86-3.97,8.86-8.86S1290.76,247.04,1285.87,247.04z"/>
				<path class="st2" d="M1364.15,106.57c-9.91,9.91-19.01,10.95-19.01,10.95c12.94-27.87-23.89-43.8-23.89-43.8
					c14.93,30.86,0,43.8,0,43.8s-14.93-34.84-45.58-40.81c-30.65-5.97-42.28-41.81-42.28-41.81c-15.19,29.86,8.22,54.75,8.22,54.75
					s-15.93-15.93-57.74-15.93c-41.81,0-55.75-38.82-55.75-38.82c-38.82,28.87-40.81,82.62-27.87,107.51
					c12.94,24.89,16.23,79.76,16.23,79.76l1.43-3.29c6.48-14.86,21.61-23.84,37.79-22.88c91.96,5.48,123.89-39.86,123.89-39.86
					c10.12,48.58,58.75,66.02,58.75,66.02C1328.58,168.54,1364.15,106.57,1364.15,106.57z M1178.62,91.74
					c2.17-0.24,5.28-0.68,9.03-0.76c3.75-0.15,8.14-0.03,12.83,0.37c2.33,0.26,4.77,0.42,7.2,0.87c2.45,0.36,4.91,0.82,7.37,1.35
					c2.46,0.5,4.87,1.21,7.26,1.85c2.41,0.57,4.66,1.52,6.9,2.24c2.25,0.7,4.3,1.7,6.29,2.52c2,0.79,3.82,1.72,5.48,2.61
					c3.38,1.64,5.99,3.4,7.83,4.56c1.84,1.18,2.85,1.9,2.85,1.9s-1.19-0.41-3.21-1.21c-1-0.4-2.22-0.9-3.62-1.46
					c-1.42-0.5-3.02-1.07-4.76-1.69c-1.73-0.64-3.61-1.31-5.63-1.93c-2.02-0.62-4.1-1.38-6.32-1.97c-4.41-1.26-9.13-2.56-13.92-3.54
					c-4.76-1.14-9.6-1.89-14.13-2.64c-4.54-0.67-8.81-1.21-12.49-1.57c-3.68-0.37-6.76-0.65-8.93-0.75
					c-2.17-0.11-3.42-0.18-3.42-0.18S1176.46,92.04,1178.62,91.74z M1274.9,140.31c-1.89,1.31-4.18,2.91-6.82,4.74
					c-2.55,1.98-5.84,3.51-9.31,5.41c-1.75,0.93-3.57,1.9-5.45,2.91c-0.94,0.5-1.91,1.01-2.88,1.52c-1.02,0.42-2.06,0.84-3.1,1.27
					c-4.22,1.65-8.58,3.73-13.33,5.17c-4.8,1.25-9.69,2.9-14.8,3.91c-2.57,0.45-5.16,0.91-7.76,1.37l-3.91,0.69
					c-1.32,0.15-2.64,0.24-3.96,0.35c-2.65,0.17-5.3,0.34-7.93,0.51c-2.63,0.22-5.27-0.03-7.88-0.03c-2.61-0.11-5.2,0.01-7.74-0.29
					c-2.54-0.26-5.06-0.51-7.53-0.77c-2.48-0.18-4.88-0.67-7.22-1.13c-2.34-0.49-4.65-0.83-6.85-1.41
					c-4.39-1.18-8.57-2.17-12.3-3.52c-3.79-1.14-7.13-2.58-10.09-3.81c-2.94-1.29-5.47-2.48-7.51-3.54c-4.1-2.1-6.26-3.6-6.26-3.6
					s0.58,0.31,1.7,0.81c1.1,0.54,2.78,1.2,4.88,2.09c2.11,0.87,4.72,1.83,7.72,2.86c3.03,0.96,6.43,2.07,10.21,3.05
					c3.73,1.14,7.9,1.89,12.25,2.83c2.18,0.46,4.47,0.67,6.78,1.03c2.32,0.29,4.66,0.79,7.09,0.91c2.42,0.2,4.87,0.41,7.36,0.62
					c2.48,0.26,5.02,0.09,7.56,0.15c2.54-0.05,5.11,0.16,7.68-0.1c2.56-0.21,5.14-0.42,7.71-0.64l3.86-0.28l3.82-0.61
					c2.54-0.4,5.08-0.8,7.59-1.2c5.01-0.9,9.8-2.44,14.52-3.57c4.64-1.39,9.01-3.15,13.24-4.55c1.05-0.37,2.09-0.73,3.12-1.09
					c0.98-0.46,1.95-0.9,2.9-1.35c1.9-0.89,3.74-1.75,5.51-2.58c3.49-1.74,6.89-2.97,9.57-4.69c2.76-1.59,5.16-2.97,7.14-4.11
					c4-2.25,6.29-3.53,6.29-3.53S1278.64,137.66,1274.9,140.31z M1323.53,198.18c-0.88-0.56-1.95-1.23-3.18-2.01
					c-1.2-0.82-2.46-1.87-3.85-3c-0.7-0.57-1.42-1.17-2.17-1.78c-0.68-0.69-1.39-1.4-2.11-2.13c-1.46-1.46-3.02-2.99-4.36-4.8
					c-1.41-1.76-2.92-3.54-4.14-5.57c-0.65-0.99-1.3-1.99-1.96-2.99l-1.76-3.14c-1.19-2.09-2.13-4.3-3.13-6.44
					c-1-2.14-1.68-4.37-2.48-6.46c-0.66-2.15-1.34-4.2-1.78-6.21c-0.52-1.99-0.9-3.89-1.18-5.65c-0.64-3.52-0.8-6.5-0.93-8.57
					c-0.1-2.08-0.01-3.27-0.01-3.27s0.28,1.15,0.77,3.15c0.47,2,1.32,4.82,2.38,8.15c0.51,1.67,1.14,3.45,1.81,5.34
					c0.61,1.9,1.5,3.81,2.22,5.85c1.73,3.98,3.54,8.23,5.82,12.23l1.63,3.04c0.61,0.97,1.22,1.94,1.82,2.9
					c1.17,1.94,2.42,3.78,3.7,5.53c1.21,1.8,2.53,3.41,3.79,4.95c1.22,1.57,2.43,3.01,3.65,4.25c1.18,1.29,2.27,2.47,3.23,3.52
					c1.04,0.98,1.95,1.83,2.7,2.53c1.49,1.42,2.33,2.28,2.33,2.28S1325.29,199.27,1323.53,198.18z"/>
			</g>
		</g>
	</g>
	<g>
		<path class="st0" d="M62.23,186.05h36.21v23.98H62.23v49.17h45.57v23.98H35.85V115.3h71.95v23.98H62.23V186.05z"/>
		<path class="st0" d="M115.23,115.3h41.73c26.38,0,39.33,14.63,39.33,41.49v84.9c0,26.86-12.95,41.49-39.33,41.49h-41.73V115.3z
			 M141.62,139.29V259.2h14.87c8.39,0,13.43-4.32,13.43-16.31v-87.3c0-11.99-5.04-16.31-13.43-16.31H141.62z"/>
		<path class="st0" d="M262.97,193.73h-0.48l-9.35,89.46h-36.21L198.21,115.3h25.66l13.91,132.39h0.48l12.47-132.39h25.42
			l12.95,133.35h0.48l13.43-133.35h23.02l-18.71,167.88h-35.02L262.97,193.73z"/>
		<path class="st0" d="M412.14,283.19h-26.62l-4.56-30.46h-32.38l-4.56,30.46H319.8l26.86-167.88h38.61L412.14,283.19z
			 M351.94,229.94h25.42l-12.47-84.9h-0.48L351.94,229.94z"/>
		<path class="st0" d="M470.66,283.19c-1.44-4.32-2.4-6.96-2.4-20.62v-26.38c0-15.59-5.28-21.35-17.27-21.35h-9.11v68.35h-26.38
			V115.3h39.81c27.34,0,39.09,12.71,39.09,38.61v13.19c0,17.27-5.52,28.3-17.27,33.82v0.48c13.19,5.52,17.51,17.99,17.51,35.49v25.9
			c0,8.15,0.24,14.15,2.88,20.39H470.66z M441.88,139.29v51.56h10.31c9.83,0,15.83-4.32,15.83-17.75v-16.55
			c0-11.99-4.08-17.27-13.43-17.27H441.88z"/>
		<path class="st0" d="M503.03,115.3h41.73c26.38,0,39.33,14.63,39.33,41.49v84.9c0,26.86-12.95,41.49-39.33,41.49h-41.73V115.3z
			 M529.41,139.29V259.2h14.87c8.39,0,13.43-4.32,13.43-16.31v-87.3c0-11.99-5.04-16.31-13.43-16.31H529.41z"/>
		<path class="st2" d="M620.3,115.3h41.73c26.38,0,39.33,14.63,39.33,41.49v84.9c0,26.86-12.95,41.49-39.33,41.49H620.3V115.3z
			 M646.68,139.29V259.2h14.87c8.39,0,13.43-4.32,13.43-16.31v-87.3c0-11.99-5.04-16.31-13.43-16.31H646.68z"/>
		<path class="st2" d="M709.28,115.3h26.38v167.88h-26.38V115.3z"/>
		<path class="st2" d="M785.54,189.65h36.93v53.24c0,26.86-13.43,42.21-39.33,42.21s-39.33-15.35-39.33-42.21v-87.3
			c0-26.86,13.43-42.21,39.33-42.21s39.33,15.35,39.33,42.21v16.31h-24.94v-17.99c0-11.99-5.28-16.55-13.67-16.55
			c-8.39,0-13.67,4.56-13.67,16.55v90.66c0,11.99,5.28,16.31,13.67,16.31c8.39,0,13.67-4.32,13.67-16.31v-30.94h-11.99V189.65z"/>
		<path class="st2" d="M830.63,115.3h26.38v167.88h-26.38V115.3z"/>
		<path class="st2" d="M859.65,115.3h81.54v23.98h-27.58v143.9h-26.38v-143.9h-27.58V115.3z"/>
		<path class="st2" d="M1020.09,283.19h-26.62l-4.56-30.46h-32.38l-4.56,30.46h-24.22l26.86-167.88h38.61L1020.09,283.19z
			 M959.89,229.94h25.42l-12.47-84.9h-0.48L959.89,229.94z"/>
		<path class="st2" d="M1023.45,115.3h26.38v143.9h43.41v23.98h-69.79V115.3z"/>
	</g>
</g>
</svg>
