<?xml version="1.0" encoding="utf-8"?>
<!-- Generator: Adobe Illustrator 24.0.2, SVG Export Plug-In . SVG Version: 6.00 Build 0)  -->
<svg version="1.1" id="Capa_1" xmlns="http://www.w3.org/2000/svg" xmlns:xlink="http://www.w3.org/1999/xlink" x="0px" y="0px"
	 viewBox="0 0 1283.6 253.8" style="enable-background:new 0 0 1283.6 253.8;" xml:space="preserve">
<style type="text/css">
	.st0{display:none;}
	.st1{display:inline;fill:none;}
	.st2{display:inline;fill:#62DAF3;}
	.st3{font-family:'HighmanTrial-Regular';}
	.st4{font-size:322px;}
	.st5{letter-spacing:-11;}
	.st6{display:inline;fill:#061F3E;}
	.st7{fill:#62DAF3;}
	.st8{fill:#061F3E;}
	.st9{display:inline;}
</style>
<g class="st0">
	<rect y="39.4" class="st1" width="530" height="292.4"/>
	<text transform="matrix(0.73 0 0 0.8 3.051758e-05 242.2702)" class="st2 st3 st4 st5">ENUNEZ</text>
	<rect x="530" y="39.4" class="st1" width="562.2" height="292.4"/>
	<text transform="matrix(0.73 0 0 0.8 530 242.2702)" class="st6 st3 st4 st5">DIGITAL</text>
</g>
<g>
	<g>
		<path class="st7" d="M9.4,62h57.1v25.8H37.6v47.4h21.9v25.8H37.6v55.6h28.9v25.8H9.4V62z"/>
		<path class="st7" d="M72.4,62H114l19.5,128.5h1.9L134.5,62h28.2v180.3h-41.4l-19.7-130.1h-1.9l0.9,130.1H72.4V62z"/>
		<path class="st7" d="M173.2,62h28.2v143.7c0,4,0.9,7,2.7,9.3c1.8,2.2,4.7,3.3,8.8,3.3c4.1,0,7-1.1,8.7-3.3
			c1.7-2.2,2.6-5.3,2.6-9.3V62h28.2V208c0,24.6-13.2,36.8-39.7,36.8c-26.3,0-39.5-12.3-39.5-36.8V62z"/>
		<path class="st7" d="M263,62h41.6l19.5,128.5h1.9L325.1,62h28.2v180.3h-41.4l-19.7-130.1h-1.9l0.9,130.1H263V62z"/>
		<path class="st7" d="M363.9,62H421v25.8h-28.9v47.4h21.9v25.8h-21.9v55.6H421v25.8h-57.1V62z"/>
		<path class="st7" d="M463.3,87.7h-41.1V62h69.3v25.8l-41.1,128.8h41.1v25.8h-69.3v-25.8L463.3,87.7z"/>
	</g>
	<g>
		<path class="st8" d="M539.4,62h39.7c26.3,0,39.5,12.3,39.5,36.8v106.6c0,24.6-13.2,36.8-39.5,36.8h-39.7V62z M567.6,88.5v127.3
			h11.3c4.1,0,7-1.1,8.8-3.3c1.8-2.2,2.7-5.3,2.7-9.3v-102c0-3.9-0.9-7-2.7-9.3c-1.8-2.2-4.7-3.3-8.8-3.3H567.6z"/>
		<path class="st8" d="M629.2,62h28.2v180.3h-28.2V62z"/>
		<path class="st8" d="M747.2,113.5H719V98.5c0-3.9-0.9-7-2.6-9.3c-1.7-2.2-4.6-3.3-8.7-3.3c-4.1,0-7,1.1-8.8,3.3
			c-1.8,2.2-2.7,5.3-2.7,9.3v107.2c0,4,0.9,7,2.7,9.3c1.8,2.2,4.7,3.3,8.8,3.3c4.1,0,7-1.1,8.7-3.3c1.7-2.2,2.6-5.3,2.6-9.3v-44.8
			h-11.5v-25.8h39.7V208c0,24.6-13.2,36.8-39.7,36.8c-26.3,0-39.5-12.3-39.5-36.8V96.2c0-24.6,13.2-36.8,39.5-36.8
			c26.5,0,39.7,12.3,39.7,36.8V113.5z"/>
		<path class="st8" d="M757.8,62H786v180.3h-28.2V62z"/>
		<path class="st8" d="M814.7,87.7h-25.2V62h78.7v25.8h-25.4v154.6h-28.2V87.7z"/>
		<path class="st8" d="M913.6,207h-24.4l-3.3,35.3h-29.4L880,62h42.8l23.5,180.3h-29.4L913.6,207z M911,181.2l-8.7-89.9h-1.9
			l-8.7,89.9H911z"/>
		<path class="st8" d="M948.6,62h28.2v154.6h28.9v25.8h-57.1V62z"/>
	</g>
</g>
<g class="st0">
	<g id="horizontal_1_" class="st9">
		<g>
			<g>
				<path class="st7" d="M1268.8,187c-2.1-3.2-5.6-5.1-9.4-5.1h-77.8h-18.3h-30.9h-13.8h-82.2c-3.8,0-7.3,1.9-9.4,5.1
					c-2.1,3.2-2.4,7.2-0.9,10.7l15.7,36.3c1.8,4.1,5.9,6.8,10.4,6.8h68.3c4.4,0,8.4-2.6,10.3-6.6l13.9-30.3h6.7l13.9,30.3
					c1.8,4,5.9,6.6,10.3,6.6h68.3c4.5,0,8.6-2.7,10.4-6.8l15.7-36.3C1271.2,194.2,1270.9,190.2,1268.8,187z M1136.1,197.8
					l-14.7,32.2c-0.2,0.4-0.6,0.6-1,0.6h-68.3c-0.4,0-0.8-0.3-1-0.7l-15.6-36.3c-0.2-0.5-0.1-0.8,0.1-1.1c0.2-0.2,0.4-0.5,0.9-0.5
					h82.2h13.8c2,0,3,1.3,3.4,1.8C1136.2,194.5,1136.9,196,1136.1,197.8z M1260.4,193.7l-15.7,36.3c-0.2,0.4-0.6,0.7-1,0.7h-68.3
					c-0.4,0-0.8-0.2-1-0.6l-14.7-32.2c-0.8-1.8-0.1-3.3,0.3-3.8c0.3-0.6,1.4-1.8,3.4-1.8h18.3h77.8c0.5,0,0.8,0.3,0.9,0.5
					C1260.4,192.8,1260.6,193.2,1260.4,193.7z"/>
				<g>
					<path class="st8" d="M1081,168.4c0.9-0.1,1.8-0.1,2.7-0.2c0.9-0.1,1.8,0,2.6-0.1c1.7-0.2,3.2,0,4.4-0.1c1.2,0,1.9-0.1,1.9-0.1
						s-0.3-0.6-0.9-1.6c-0.7-1-1.6-2.5-3.3-3.7c-0.8-0.6-1.7-1.4-2.8-1.8c-1.1-0.5-2.3-1-3.6-1.4c-1.3-0.2-2.7-0.6-4.2-0.5
						c-1.5,0-3,0.1-4.4,0.5c-1.5,0.3-2.8,0.9-4.1,1.6c-1.3,0.6-2.4,1.5-3.4,2.3c-2,1.8-3.4,3.7-4.3,5.6c-0.9,1.9-1.3,3.5-1.4,4.7
						c-0.2,1.2-0.1,1.9-0.1,1.9s2.3-1,5.7-2.6c1.5-0.7,3.3-1.4,4.9-2.1c0.9-0.3,1.7-0.6,2.5-0.9c0.8-0.3,1.7-0.6,2.5-0.7
						c0.8-0.3,1.7-0.3,2.5-0.6C1079.2,168.6,1080.1,168.6,1081,168.4z"/>
					<path class="st8" d="M1085.9,202c-2.3,0-4.3,0.8-5.9,2.2l5.9,7.2l-9.3-1.2c-0.1,0.4-0.1,0.8-0.1,1.2c0,5.2,4.2,9.4,9.4,9.4
						s9.4-4.2,9.4-9.4S1091.1,202,1085.9,202z"/>
					<path class="st8" d="M1234.2,168.9c-0.9-1.9-2.3-3.8-4.3-5.6c-1-0.8-2.1-1.7-3.4-2.3c-1.3-0.7-2.6-1.2-4.1-1.6
						c-1.4-0.4-2.9-0.5-4.4-0.5c-1.5-0.1-2.9,0.3-4.2,0.5c-1.3,0.3-2.5,0.9-3.6,1.4c-1.1,0.5-2,1.3-2.8,1.8
						c-1.7,1.2-2.6,2.7-3.3,3.7c-0.7,1-0.9,1.6-0.9,1.6s0.8,0.1,1.9,0.1c1.2,0.1,2.7-0.1,4.4,0.1c0.8,0.1,1.7-0.1,2.6,0.1
						c0.9,0.1,1.8,0.1,2.7,0.2c0.9,0.2,1.8,0.2,2.6,0.4c0.8,0.2,1.7,0.2,2.5,0.6c0.9,0.1,1.7,0.4,2.5,0.7c0.9,0.2,1.7,0.6,2.5,0.9
						c1.7,0.7,3.4,1.4,4.9,2.1c3.4,1.6,5.7,2.6,5.7,2.6s0.1-0.7-0.1-1.9C1235.5,172.4,1235.1,170.8,1234.2,168.9z"/>
					<path class="st8" d="M1209.9,202c-2.3,0-4.3,0.8-5.9,2.2l5.9,7.2l-9.3-1.2c-0.1,0.4-0.1,0.8-0.1,1.2c0,5.2,4.2,9.4,9.4,9.4
						s9.4-4.2,9.4-9.4S1215.1,202,1209.9,202z"/>
				</g>
			</g>
		</g>
	</g>
	<path class="st6" d="M1263.9,73.5c-11.1-9.9-15.4-27.2-26.3-34.3c-2.7-1.7-5.7-3.4-8.9-5c-10.6-2.1-23-4.3-33.9-5.7
		c-23.7-3.1-52.7,0.5-52.7,0.5s22.5-4.3,40.8-3.1c13.8,0.9,28.5,3.4,41,6.1c-21.4-9.5-51-15.8-78.2-18.5c-8.9,1.8-15.5,3.8-15.5,3.8
		s5.3-2.1,12.3-4.2c-5.2-0.5-10.3-0.8-15.3-0.9c-12.4,3.4-22.9,8.2-22.9,8.2s8.6-4.8,18.5-8.3c-2,0-3.9-0.1-5.8,0
		c-16.5,3.7-34.3,13.6-34.3,13.6s14.6-9.7,27.4-13.4c-9.9,0.4-18.2,1.6-24.2,3.6c-48.6,16.4-46,45.7-66.7,77.8c-6.3,9.8,11,82,11,82
		l1.5-3.5c2.8-6.3-2.4-45.2,9.7-52.7c10.1-6.3,5.1-16.2,12.8-21.6c17.6-12.1,49.7-14.9,94.9-14.9c41.8,0,69.8,0.9,86.6,14.9
		c6.4,5.3,3.1,17.6,10.8,21.6c7.7,3.9,10.9,40.1,13.9,49.2c1.6,4.9,5.1,7,5.1,7C1263,119.4,1279.2,87.1,1263.9,73.5z"/>
</g>
</svg>
