<?xml version="1.0" encoding="utf-8"?>
<!-- Generator: Adobe Illustrator 24.0.2, SVG Export Plug-In . SVG Version: 6.00 Build 0)  -->
<svg version="1.1" id="Capa_1" xmlns="http://www.w3.org/2000/svg" xmlns:xlink="http://www.w3.org/1999/xlink" x="0px" y="0px"
	 viewBox="0 0 1297.8 270.6" style="enable-background:new 0 0 1297.8 270.6;" xml:space="preserve">
<style type="text/css">
	.st0{fill:#62DAF3;}
	.st1{fill:#FFFFFF;}
	.st2{display:none;}
	.st3{display:inline;fill:none;}
	.st4{display:inline;fill:#62DAF3;}
	.st5{font-family:'HighmanTrial-Regular';}
	.st6{font-size:322px;}
	.st7{letter-spacing:-11;}
	.st8{display:inline;fill:#061F3E;}
</style>
<g id="horizontal">
	<g>
		<g>
			<path class="st0" d="M1262.4,208.2c-2-3-5.3-4.8-8.9-4.8h-73.3H1163h-29.1h-13.1h-77.5c-3.6,0-6.9,1.8-8.9,4.8
				c-2,3-2.3,6.8-0.9,10.1l14.8,34.2c1.7,3.9,5.5,6.4,9.8,6.4h64.4c4.2,0,7.9-2.4,9.7-6.2l13.1-28.6h6.3l13.1,28.6
				c1.7,3.8,5.5,6.2,9.7,6.2h64.4c4.3,0,8.1-2.5,9.8-6.4l14.8-34.2C1264.7,215,1264.4,211.2,1262.4,208.2z M1137.3,218.3l-13.9,30.3
				c-0.2,0.4-0.5,0.6-0.9,0.6h-64.4c-0.4,0-0.8-0.3-0.9-0.6l-14.8-34.2c-0.2-0.4-0.1-0.8,0.1-1s0.4-0.5,0.9-0.5h77.5h13.1
				c1.9,0,2.8,1.2,3.2,1.7C1137.4,215.2,1138.1,216.6,1137.3,218.3z M1254.5,214.5l-14.8,34.2c-0.2,0.4-0.5,0.6-1,0.6h-64.4
				c-0.4,0-0.8-0.2-0.9-0.6l-13.9-30.3c-0.8-1.7-0.1-3.1,0.3-3.6c0.3-0.5,1.3-1.7,3.2-1.7h17.2h73.3c0.5,0,0.7,0.3,0.9,0.5
				C1254.5,213.7,1254.7,214,1254.5,214.5z"/>
			<g>
				<path class="st1" d="M1085.3,190.6c0.8-0.1,1.7-0.1,2.5-0.2c0.8-0.1,1.7,0,2.5-0.1c1.6-0.2,3.1,0,4.2-0.1c1.1,0,1.8-0.1,1.8-0.1
					s-0.3-0.6-0.9-1.6c-0.6-0.9-1.6-2.3-3.1-3.4c-0.8-0.6-1.6-1.3-2.6-1.7c-1-0.4-2.1-1-3.4-1.3c-1.3-0.2-2.6-0.6-3.9-0.5
					c-1.4,0-2.8,0.1-4.1,0.5c-1.4,0.3-2.7,0.8-3.9,1.5c-1.2,0.6-2.3,1.4-3.2,2.2c-1.9,1.7-3.2,3.5-4,5.3c-0.8,1.8-1.2,3.3-1.3,4.5
					c-0.2,1.1-0.1,1.8-0.1,1.8s2.2-1,5.4-2.4c1.5-0.7,3.1-1.3,4.7-2c0.8-0.2,1.6-0.6,2.4-0.8c0.8-0.2,1.6-0.5,2.4-0.6
					c0.8-0.3,1.6-0.3,2.4-0.5C1083.7,190.8,1084.5,190.8,1085.3,190.6z"/>
				<path class="st1" d="M1090,222.3c-2.1,0-4.1,0.8-5.6,2l5.6,6.8l-8.7-1.1c-0.1,0.4-0.1,0.8-0.1,1.1c0,4.9,4,8.9,8.9,8.9
					s8.9-4,8.9-8.9S1094.9,222.3,1090,222.3z"/>
				<path class="st1" d="M1229.8,191.1c-0.8-1.8-2.2-3.6-4-5.3c-1-0.8-2-1.6-3.2-2.2c-1.2-0.6-2.5-1.1-3.9-1.5
					c-1.3-0.4-2.8-0.4-4.1-0.5c-1.4-0.1-2.7,0.3-3.9,0.5c-1.2,0.3-2.3,0.8-3.4,1.3c-1,0.5-1.8,1.2-2.6,1.7c-1.6,1.1-2.5,2.5-3.1,3.4
					c-0.6,0.9-0.9,1.6-0.9,1.6s0.7,0.1,1.8,0.1c1.1,0.1,2.5-0.1,4.2,0.1c0.8,0.1,1.6-0.1,2.5,0.1c0.8,0.1,1.7,0.1,2.5,0.2
					c0.8,0.2,1.7,0.2,2.4,0.3c0.8,0.2,1.6,0.2,2.4,0.5c0.8,0.1,1.6,0.4,2.4,0.6c0.8,0.2,1.6,0.6,2.4,0.8c1.6,0.6,3.2,1.3,4.7,2
					c3.2,1.5,5.4,2.4,5.4,2.4s0.1-0.7-0.1-1.8C1231,194.4,1230.6,192.9,1229.8,191.1z"/>
				<path class="st1" d="M1206.9,222.3c-2.1,0-4.1,0.8-5.6,2l5.6,6.8l-8.7-1.1c-0.1,0.4-0.1,0.8-0.1,1.1c0,4.9,4,8.9,8.9,8.9
					s8.9-4,8.9-8.9S1211.8,222.3,1206.9,222.3z"/>
				<path class="st1" d="M1285.2,81.8c-9.9,9.9-19,10.9-19,10.9c12.9-27.9-23.9-43.8-23.9-43.8c14.9,30.9,0,43.8,0,43.8
					s-14.9-34.8-45.6-40.8c-30.7-6-42.3-41.8-42.3-41.8c-15.2,29.9,8.2,54.8,8.2,54.8S1146.7,49,1104.9,49
					c-41.8,0-55.8-38.8-55.8-38.8c-38.8,28.9-40.8,82.6-27.9,107.5c12.9,24.9,16.2,79.8,16.2,79.8l1.4-3.3
					c6.5-14.9,21.6-23.8,37.8-22.9c92,5.5,123.9-39.9,123.9-39.9c10.1,48.6,58.8,66,58.8,66C1249.6,143.8,1285.2,81.8,1285.2,81.8z
					 M1099.6,67c2.2-0.2,5.3-0.7,9-0.8c3.8-0.2,8.1,0,12.8,0.4c2.3,0.3,4.8,0.4,7.2,0.9c2.4,0.4,4.9,0.8,7.4,1.3
					c2.5,0.5,4.9,1.2,7.3,1.8c2.4,0.6,4.7,1.5,6.9,2.2c2.3,0.7,4.3,1.7,6.3,2.5c2,0.8,3.8,1.7,5.5,2.6c3.4,1.6,6,3.4,7.8,4.6
					c1.8,1.2,2.8,1.9,2.8,1.9s-1.2-0.4-3.2-1.2c-1-0.4-2.2-0.9-3.6-1.5c-1.4-0.5-3-1.1-4.8-1.7c-1.7-0.6-3.6-1.3-5.6-1.9
					s-4.1-1.4-6.3-2c-4.4-1.3-9.1-2.6-13.9-3.5c-4.8-1.1-9.6-1.9-14.1-2.6c-4.5-0.7-8.8-1.2-12.5-1.6c-3.7-0.4-6.8-0.7-8.9-0.8
					c-2.2-0.1-3.4-0.2-3.4-0.2S1097.5,67.3,1099.6,67z M1195.9,115.5c-1.9,1.3-4.2,2.9-6.8,4.7c-2.6,2-5.8,3.5-9.3,5.4
					c-1.8,0.9-3.6,1.9-5.4,2.9c-0.9,0.5-1.9,1-2.9,1.5c-1,0.4-2.1,0.8-3.1,1.3c-4.2,1.6-8.6,3.7-13.3,5.2c-4.8,1.3-9.7,2.9-14.8,3.9
					c-2.6,0.4-5.2,0.9-7.8,1.4l-3.9,0.7c-1.3,0.1-2.6,0.2-4,0.4c-2.7,0.2-5.3,0.3-7.9,0.5c-2.6,0.2-5.3,0-7.9,0
					c-2.6-0.1-5.2,0-7.7-0.3c-2.5-0.3-5.1-0.5-7.5-0.8c-2.5-0.2-4.9-0.7-7.2-1.1c-2.3-0.5-4.7-0.8-6.8-1.4
					c-4.4-1.2-8.6-2.2-12.3-3.5c-3.8-1.1-7.1-2.6-10.1-3.8c-2.9-1.3-5.5-2.5-7.5-3.5c-4.1-2.1-6.3-3.6-6.3-3.6s0.6,0.3,1.7,0.8
					c1.1,0.5,2.8,1.2,4.9,2.1c2.1,0.9,4.7,1.8,7.7,2.9c3,1,6.4,2.1,10.2,3.1c3.7,1.1,7.9,1.9,12.3,2.8c2.2,0.5,4.5,0.7,6.8,1
					c2.3,0.3,4.7,0.8,7.1,0.9c2.4,0.2,4.9,0.4,7.4,0.6c2.5,0.3,5,0.1,7.6,0.1c2.5-0.1,5.1,0.2,7.7-0.1c2.6-0.2,5.1-0.4,7.7-0.6
					l3.9-0.3l3.8-0.6c2.5-0.4,5.1-0.8,7.6-1.2c5-0.9,9.8-2.4,14.5-3.6c4.6-1.4,9-3.1,13.2-4.6c1.1-0.4,2.1-0.7,3.1-1.1
					c1-0.5,1.9-0.9,2.9-1.4c1.9-0.9,3.7-1.8,5.5-2.6c3.5-1.7,6.9-3,9.6-4.7c2.8-1.6,5.2-3,7.1-4.1c4-2.3,6.3-3.5,6.3-3.5
					S1199.6,112.9,1195.9,115.5z M1244.5,173.4c-0.9-0.6-1.9-1.2-3.2-2c-1.2-0.8-2.5-1.9-3.8-3c-0.7-0.6-1.4-1.2-2.2-1.8
					c-0.7-0.7-1.4-1.4-2.1-2.1c-1.5-1.5-3-3-4.4-4.8c-1.4-1.8-2.9-3.5-4.1-5.6c-0.7-1-1.3-2-2-3l-1.8-3.1c-1.2-2.1-2.1-4.3-3.1-6.4
					s-1.7-4.4-2.5-6.5c-0.7-2.1-1.3-4.2-1.8-6.2c-0.5-2-0.9-3.9-1.2-5.6c-0.6-3.5-0.8-6.5-0.9-8.6c-0.1-2.1,0-3.3,0-3.3
					s0.3,1.1,0.8,3.1c0.5,2,1.3,4.8,2.4,8.1c0.5,1.7,1.1,3.4,1.8,5.3c0.6,1.9,1.5,3.8,2.2,5.9c1.7,4,3.5,8.2,5.8,12.2l1.6,3
					c0.6,1,1.2,1.9,1.8,2.9c1.2,1.9,2.4,3.8,3.7,5.5c1.2,1.8,2.5,3.4,3.8,4.9c1.2,1.6,2.4,3,3.7,4.3c1.2,1.3,2.3,2.5,3.2,3.5
					c1,1,1.9,1.8,2.7,2.5c1.5,1.4,2.3,2.3,2.3,2.3S1246.3,174.5,1244.5,173.4z"/>
			</g>
		</g>
	</g>
</g>
<g class="st2">
	<rect y="56.2" class="st3" width="530" height="292.4"/>
	<text transform="matrix(0.73 0 0 0.8 3.051758e-05 259.0444)" class="st4 st5 st6 st7">ENUNEZ</text>
	<rect x="530" y="56.2" class="st3" width="562.2" height="292.4"/>
	<text transform="matrix(0.73 0 0 0.8 530 259.0444)" class="st8 st5 st6 st7">DIGITAL</text>
</g>
<g>
	<g>
		<path class="st0" d="M9.4,78.7h57.1v25.8H37.6v47.4h21.9v25.8H37.6v55.6h28.9V259H9.4V78.7z"/>
		<path class="st0" d="M72.4,78.7H114l19.5,128.5h1.9l-0.9-128.5h28.2V259h-41.4L101.5,129h-1.9l0.9,130.1H72.4V78.7z"/>
		<path class="st0" d="M173.2,78.7h28.2v143.7c0,4,0.9,7,2.7,9.3c1.8,2.2,4.7,3.3,8.8,3.3c4.1,0,7-1.1,8.7-3.3
			c1.7-2.2,2.6-5.3,2.6-9.3V78.7h28.2v146.1c0,24.6-13.2,36.8-39.7,36.8c-26.3,0-39.5-12.3-39.5-36.8V78.7z"/>
		<path class="st0" d="M263,78.7h41.6l19.5,128.5h1.9l-0.9-128.5h28.2V259h-41.4L292.2,129h-1.9l0.9,130.1H263V78.7z"/>
		<path class="st0" d="M363.9,78.7H421v25.8h-28.9v47.4h21.9v25.8h-21.9v55.6H421V259h-57.1V78.7z"/>
		<path class="st0" d="M463.3,104.5h-41.1V78.7h69.3v25.8l-41.1,128.8h41.1V259h-69.3v-25.8L463.3,104.5z"/>
	</g>
	<g>
		<path class="st1" d="M539.4,78.7h39.7c26.3,0,39.5,12.3,39.5,36.8v106.6c0,24.6-13.2,36.8-39.5,36.8h-39.7V78.7z M567.6,105.3
			v127.3h11.3c4.1,0,7-1.1,8.8-3.3c1.8-2.2,2.7-5.3,2.7-9.3v-102c0-3.9-0.9-7-2.7-9.3c-1.8-2.2-4.7-3.3-8.8-3.3H567.6z"/>
		<path class="st1" d="M629.2,78.7h28.2V259h-28.2V78.7z"/>
		<path class="st1" d="M747.2,130.2H719v-14.9c0-3.9-0.9-7-2.6-9.3c-1.7-2.2-4.6-3.3-8.7-3.3c-4.1,0-7,1.1-8.8,3.3
			c-1.8,2.2-2.7,5.3-2.7,9.3v107.2c0,4,0.9,7,2.7,9.3c1.8,2.2,4.7,3.3,8.8,3.3c4.1,0,7-1.1,8.7-3.3c1.7-2.2,2.6-5.3,2.6-9.3v-44.8
			h-11.5v-25.8h39.7v72.9c0,24.6-13.2,36.8-39.7,36.8c-26.3,0-39.5-12.3-39.5-36.8V113c0-24.6,13.2-36.8,39.5-36.8
			c26.5,0,39.7,12.3,39.7,36.8V130.2z"/>
		<path class="st1" d="M757.8,78.7H786V259h-28.2V78.7z"/>
		<path class="st1" d="M814.7,104.5h-25.2V78.7h78.7v25.8h-25.4V259h-28.2V104.5z"/>
		<path class="st1" d="M913.6,223.8h-24.4l-3.3,35.3h-29.4L880,78.7h42.8L946.3,259h-29.4L913.6,223.8z M911,198l-8.7-89.9h-1.9
			l-8.7,89.9H911z"/>
		<path class="st1" d="M948.6,78.7h28.2v154.6h28.9V259h-57.1V78.7z"/>
	</g>
</g>
</svg>
