<?xml version="1.0" encoding="utf-8"?>
<!-- Generator: Adobe Illustrator 24.0.2, SVG Export Plug-In . SVG Version: 6.00 Build 0)  -->
<svg version="1.1" id="Capa_1" xmlns="http://www.w3.org/2000/svg" xmlns:xlink="http://www.w3.org/1999/xlink" x="0px" y="0px"
	 viewBox="0 0 1283.5 253.7" style="enable-background:new 0 0 1283.5 253.7;" xml:space="preserve">
<style type="text/css">
	.st0{display:none;}
	.st1{display:inline;fill:none;}
	.st2{display:inline;fill:#62DAF3;}
	.st3{font-family:'HighmanTrial-Regular';}
	.st4{font-size:322px;}
	.st5{letter-spacing:-11;}
	.st6{display:inline;fill:#061F3E;}
	.st7{fill:#62DAF3;}
	.st8{fill:#FFFFFF;}
	.st9{display:inline;}
	.st10{display:inline;fill:#FFFFFF;}
</style>
<g class="st0">
	<rect x="-1.9" y="40.8" class="st1" width="530" height="292.4"/>
	<text transform="matrix(0.73 0 0 0.8 -1.8975 243.6367)" class="st2 st3 st4 st5">ENUNEZ</text>
	<rect x="528.1" y="40.8" class="st1" width="562.2" height="292.4"/>
	<text transform="matrix(0.73 0 0 0.8 528.1025 243.6367)" class="st6 st3 st4 st5">DIGITAL</text>
</g>
<g>
	<g>
		<path class="st7" d="M7.5,63.3h57.1v25.8H35.7v47.4h21.9v25.8H35.7v55.6h28.9v25.8H7.5V63.3z"/>
		<path class="st7" d="M70.5,63.3h41.6l19.5,128.5h1.9l-0.9-128.5h28.2v180.3h-41.4L99.6,113.5h-1.9l0.9,130.1H70.5V63.3z"/>
		<path class="st7" d="M171.3,63.3h28.2v143.7c0,4,0.9,7,2.7,9.3c1.8,2.2,4.7,3.3,8.8,3.3c4.1,0,7-1.1,8.7-3.3
			c1.7-2.2,2.6-5.3,2.6-9.3V63.3h28.2v146.1c0,24.6-13.2,36.8-39.7,36.8c-26.3,0-39.5-12.3-39.5-36.8V63.3z"/>
		<path class="st7" d="M261.1,63.3h41.6l19.5,128.5h1.9l-0.9-128.5h28.2v180.3H310l-19.7-130.1h-1.9l0.9,130.1h-28.2V63.3z"/>
		<path class="st7" d="M362,63.3h57.1v25.8h-28.9v47.4H412v25.8h-21.9v55.6h28.9v25.8H362V63.3z"/>
		<path class="st7" d="M461.4,89.1h-41.1V63.3h69.3v25.8l-41.1,128.8h41.1v25.8h-69.3v-25.8L461.4,89.1z"/>
	</g>
	<g>
		<path class="st8" d="M537.5,63.3h39.7c26.3,0,39.5,12.3,39.5,36.8v106.6c0,24.6-13.2,36.8-39.5,36.8h-39.7V63.3z M565.7,89.8
			v127.3H577c4.1,0,7-1.1,8.8-3.3c1.8-2.2,2.7-5.3,2.7-9.3v-102c0-3.9-0.9-7-2.7-9.3c-1.8-2.2-4.7-3.3-8.8-3.3H565.7z"/>
		<path class="st8" d="M627.3,63.3h28.2v180.3h-28.2V63.3z"/>
		<path class="st8" d="M745.3,114.8h-28.2V99.9c0-3.9-0.9-7-2.6-9.3c-1.7-2.2-4.6-3.3-8.7-3.3c-4.1,0-7,1.1-8.8,3.3
			c-1.8,2.2-2.7,5.3-2.7,9.3v107.2c0,4,0.9,7,2.7,9.3c1.8,2.2,4.7,3.3,8.8,3.3c4.1,0,7-1.1,8.7-3.3c1.7-2.2,2.6-5.3,2.6-9.3v-44.8
			h-11.5v-25.8h39.7v72.9c0,24.6-13.2,36.8-39.7,36.8c-26.3,0-39.5-12.3-39.5-36.8V97.6c0-24.6,13.2-36.8,39.5-36.8
			c26.5,0,39.7,12.3,39.7,36.8V114.8z"/>
		<path class="st8" d="M755.9,63.3h28.2v180.3h-28.2V63.3z"/>
		<path class="st8" d="M812.8,89.1h-25.2V63.3h78.7v25.8H841v154.6h-28.2V89.1z"/>
		<path class="st8" d="M911.7,208.3h-24.4l-3.3,35.3h-29.4l23.5-180.3h42.8l23.5,180.3H915L911.7,208.3z M909.1,182.6l-8.7-89.9
			h-1.9l-8.7,89.9H909.1z"/>
		<path class="st8" d="M946.7,63.3h28.2v154.6h28.9v25.8h-57.1V63.3z"/>
	</g>
</g>
<g class="st0">
	<g id="horizontal_1_" class="st9">
		<g>
			<g>
				<path class="st7" d="M1266.9,189.6c-2.1-3.2-5.6-5.1-9.4-5.1h-77.8h-18.3h-30.9h-13.8h-82.2c-3.8,0-7.3,1.9-9.4,5.1
					c-2.1,3.2-2.4,7.2-0.9,10.7l15.7,36.3c1.8,4.1,5.9,6.8,10.4,6.8h68.3c4.4,0,8.4-2.6,10.3-6.6l13.9-30.3h6.7l13.9,30.3
					c1.8,4,5.9,6.6,10.3,6.6h68.3c4.5,0,8.6-2.7,10.4-6.8l15.7-36.3C1269.3,196.8,1269,192.8,1266.9,189.6z M1134.2,200.4
					l-14.7,32.2c-0.2,0.4-0.6,0.6-1,0.6h-68.3c-0.4,0-0.8-0.3-1-0.7l-15.6-36.3c-0.2-0.5-0.1-0.8,0.1-1.1c0.2-0.2,0.4-0.5,0.9-0.5
					h82.2h13.8c2,0,3,1.3,3.4,1.8C1134.3,197.1,1135,198.6,1134.2,200.4z M1258.5,196.3l-15.7,36.3c-0.2,0.4-0.6,0.7-1,0.7h-68.3
					c-0.4,0-0.8-0.2-1-0.6l-14.7-32.2c-0.8-1.8-0.1-3.3,0.3-3.8c0.4-0.6,1.4-1.8,3.4-1.8h18.3h77.8c0.5,0,0.8,0.3,0.9,0.5
					C1258.5,195.4,1258.7,195.8,1258.5,196.3z"/>
				<g>
					<path class="st8" d="M1079.1,171c0.9-0.1,1.8-0.1,2.7-0.2c0.9-0.1,1.8,0,2.6-0.1c1.7-0.2,3.2,0,4.4-0.1c1.2,0,1.9-0.1,1.9-0.1
						s-0.3-0.6-0.9-1.6c-0.7-1-1.6-2.5-3.3-3.7c-0.8-0.6-1.7-1.4-2.8-1.8c-1.1-0.5-2.3-1-3.6-1.4c-1.3-0.2-2.7-0.6-4.2-0.5
						c-1.5,0-3,0.1-4.4,0.5c-1.5,0.3-2.8,0.9-4.1,1.6c-1.3,0.6-2.4,1.5-3.4,2.3c-2,1.8-3.4,3.7-4.3,5.6c-0.9,1.9-1.3,3.5-1.4,4.7
						c-0.2,1.2-0.1,1.9-0.1,1.9s2.3-1,5.7-2.6c1.5-0.7,3.3-1.4,4.9-2.1c0.9-0.3,1.7-0.6,2.5-0.9c0.8-0.3,1.7-0.6,2.5-0.7
						c0.8-0.3,1.7-0.3,2.5-0.6C1077.3,171.2,1078.2,171.2,1079.1,171z"/>
					<path class="st8" d="M1084,204.6c-2.3,0-4.3,0.8-5.9,2.2l5.9,7.2l-9.3-1.2c-0.1,0.4-0.1,0.8-0.1,1.2c0,5.2,4.2,9.4,9.4,9.4
						c5.2,0,9.4-4.2,9.4-9.4S1089.2,204.6,1084,204.6z"/>
					<path class="st8" d="M1232.3,171.5c-0.9-1.9-2.3-3.8-4.3-5.6c-1-0.8-2.1-1.7-3.4-2.3c-1.3-0.7-2.6-1.2-4.1-1.6
						c-1.4-0.4-2.9-0.5-4.4-0.5c-1.5-0.1-2.9,0.3-4.2,0.5c-1.3,0.3-2.5,0.9-3.6,1.4c-1.1,0.5-2,1.3-2.8,1.8
						c-1.7,1.2-2.6,2.7-3.3,3.7c-0.7,1-0.9,1.6-0.9,1.6s0.8,0.1,1.9,0.1c1.2,0.1,2.7-0.1,4.4,0.1c0.8,0.1,1.7-0.1,2.6,0.1
						c0.9,0.1,1.8,0.1,2.7,0.2c0.9,0.2,1.8,0.2,2.6,0.4c0.8,0.2,1.7,0.2,2.5,0.6c0.9,0.1,1.7,0.4,2.5,0.7c0.9,0.2,1.7,0.6,2.5,0.9
						c1.7,0.7,3.4,1.4,4.9,2.1c3.4,1.6,5.7,2.6,5.7,2.6s0.1-0.7-0.1-1.9C1233.6,175,1233.2,173.4,1232.3,171.5z"/>
					<path class="st8" d="M1208,204.6c-2.3,0-4.3,0.8-5.9,2.2l5.9,7.2l-9.3-1.2c-0.1,0.4-0.1,0.8-0.1,1.2c0,5.2,4.2,9.4,9.4,9.4
						s9.4-4.2,9.4-9.4S1213.2,204.6,1208,204.6z"/>
				</g>
			</g>
		</g>
	</g>
	<path class="st10" d="M1262,76.1c-11.1-9.9-15.4-27.2-26.3-34.3c-2.7-1.7-5.7-3.4-8.9-5c-10.6-2.1-23-4.3-33.9-5.7
		c-23.7-3.1-52.7,0.5-52.7,0.5s22.5-4.3,40.8-3.1c13.8,0.9,28.5,3.4,41,6.1c-21.4-9.5-51-15.8-78.2-18.5c-8.9,1.8-15.5,3.8-15.5,3.8
		s5.3-2.1,12.3-4.2c-5.2-0.5-10.3-0.8-15.3-0.9c-12.4,3.4-22.9,8.2-22.9,8.2s8.6-4.8,18.5-8.3c-2,0-3.9-0.1-5.8,0
		c-16.5,3.7-34.3,13.6-34.3,13.6s14.6-9.7,27.4-13.4c-9.9,0.4-18.2,1.6-24.2,3.6c-48.6,16.4-46,45.7-66.7,77.8c-6.3,9.8,11,82,11,82
		l1.5-3.5c2.8-6.3-2.4-45.2,9.7-52.7c10.1-6.3,5.1-16.2,12.8-21.6c17.6-12.1,49.7-14.9,94.9-14.9c41.8,0,69.8,0.9,86.6,14.9
		c6.4,5.3,3.1,17.6,10.8,21.6c7.7,3.9,10.9,40.1,13.9,49.2c1.6,4.9,5.1,7,5.1,7C1261.1,122,1277.3,89.7,1262,76.1z"/>
</g>
</svg>
